<svg xmlns="http://www.w3.org/2000/svg" xmlns:xlink="http://www.w3.org/1999/xlink" width="176" zoomAndPan="magnify" viewBox="0 0 132 38.999999" height="52" preserveAspectRatio="xMidYMid meet" version="1.0"><defs><g/><clipPath id="d613945bea"><path d="M 3.898438 4 L 39.898438 4 L 39.898438 33 L 3.898438 33 Z M 3.898438 4 " clip-rule="nonzero"/></clipPath></defs><g clip-path="url(#d613945bea)"><path fill="#ffffff" d="M 3.898438 13.125 L 3.898438 13.195312 L 20.382812 20.917969 L 36.925781 13.171875 L 36.925781 13.152344 L 20.382812 5.40625 Z M 9.84375 13.160156 L 20.382812 8.222656 L 30.925781 13.160156 L 20.382812 18.097656 Z M 20.382812 23.914062 L 3.898438 16.3125 L 3.898438 19.121094 L 20.382812 26.746094 L 36.925781 19.097656 L 36.925781 16.285156 Z M 20.382812 29.617188 L 3.898438 22.011719 L 3.898438 24.828125 L 20.382812 32.449219 L 36.925781 24.800781 L 36.925781 21.988281 Z M 97.640625 18.648438 C 97.652344 17.378906 97.230469 16.277344 96.375 15.34375 C 95.984375 14.917969 95.527344 14.589844 95.007812 14.351562 C 94.476562 14.109375 93.917969 13.992188 93.335938 13.996094 C 92.753906 13.992188 92.195312 14.109375 91.664062 14.351562 C 91.144531 14.589844 90.6875 14.917969 90.296875 15.34375 C 89.441406 16.277344 89.019531 17.378906 89.03125 18.648438 C 89.019531 19.921875 89.441406 21.023438 90.296875 21.953125 C 90.6875 22.378906 91.144531 22.707031 91.664062 22.945312 C 92.195312 23.1875 92.753906 23.304688 93.335938 23.300781 C 93.917969 23.304688 94.476562 23.1875 95.007812 22.945312 C 95.527344 22.707031 95.984375 22.378906 96.375 21.953125 C 97.230469 21.023438 97.652344 19.921875 97.640625 18.648438 Z M 101.398438 18.648438 C 101.398438 19.792969 101.191406 20.855469 100.773438 21.835938 C 100.367188 22.796875 99.792969 23.644531 99.050781 24.375 C 98.320312 25.085938 97.464844 25.652344 96.480469 26.066406 C 95.496094 26.480469 94.449219 26.6875 93.335938 26.6875 C 92.222656 26.6875 91.179688 26.480469 90.203125 26.066406 C 89.242188 25.664062 88.390625 25.09375 87.644531 24.359375 C 86.90625 23.625 86.332031 22.773438 85.921875 21.808594 C 85.507812 20.832031 85.296875 19.777344 85.296875 18.648438 C 85.296875 17.539062 85.511719 16.492188 85.9375 15.515625 C 86.351562 14.546875 86.933594 13.695312 87.671875 12.949219 C 88.414062 12.210938 89.265625 11.636719 90.230469 11.234375 C 91.203125 10.816406 92.238281 10.609375 93.335938 10.609375 C 94.449219 10.609375 95.496094 10.816406 96.480469 11.234375 C 97.464844 11.648438 98.320312 12.210938 99.050781 12.925781 C 99.78125 13.636719 100.355469 14.488281 100.773438 15.476562 C 101.191406 16.464844 101.398438 17.519531 101.398438 18.648438 Z M 83.992188 26.210938 C 83.671875 26.359375 83.335938 26.476562 82.988281 26.554688 C 82.605469 26.644531 82.21875 26.6875 81.828125 26.6875 C 81.269531 26.6875 80.734375 26.613281 80.222656 26.460938 C 79.71875 26.320312 79.273438 26.078125 78.878906 25.734375 C 78.496094 25.398438 78.191406 24.964844 77.964844 24.425781 C 77.738281 23.886719 77.625 23.242188 77.625 22.484375 L 77.625 4.34375 L 81.460938 4.34375 L 81.460938 21.820312 C 81.460938 22.457031 81.585938 22.890625 81.839844 23.128906 C 82.09375 23.367188 82.390625 23.488281 82.738281 23.488281 C 83.175781 23.488281 83.59375 23.355469 83.992188 23.089844 Z M 75.929688 10.980469 L 69.140625 29.144531 C 68.636719 30.503906 67.976562 31.480469 67.160156 32.082031 C 66.339844 32.679688 65.367188 32.980469 64.234375 32.980469 C 64.042969 32.976562 63.851562 32.964844 63.660156 32.941406 C 63.460938 32.914062 63.257812 32.875 63.0625 32.820312 L 61.808594 29.277344 C 62.101562 29.417969 62.40625 29.527344 62.722656 29.609375 C 63.011719 29.683594 63.308594 29.722656 63.609375 29.726562 C 64.203125 29.726562 64.742188 29.589844 65.226562 29.316406 C 65.714844 29.042969 66.089844 28.539062 66.351562 27.796875 L 66.871094 26.265625 L 61.050781 10.980469 L 65.148438 10.980469 L 68.621094 20.816406 L 71.882812 10.980469 Z M 60.136719 8.679688 L 50.328125 8.679688 L 50.328125 13.597656 L 60.007812 13.597656 L 60.007812 16.929688 L 50.328125 16.929688 L 50.328125 26.289062 L 46.359375 26.289062 L 46.359375 5.164062 L 60.140625 5.164062 L 60.140625 8.679688 Z M 60.136719 8.679688 " fill-opacity="1" fill-rule="evenodd"/></g><g fill="#ffffff" fill-opacity="1"><g transform="translate(48.637372, 26.519455)"><g><path d="M 12.796875 -3.53125 C 12.796875 -3.21875 12.765625 -2.835938 12.703125 -2.390625 C 12.648438 -1.941406 12.539062 -1.515625 12.375 -1.109375 C 12.21875 -0.703125 12.003906 -0.359375 11.734375 -0.078125 C 11.460938 0.191406 11.109375 0.328125 10.671875 0.328125 C 10.078125 0.328125 9.628906 0.113281 9.328125 -0.3125 C 9.035156 -0.738281 8.828125 -1.25 8.703125 -1.84375 C 8.578125 -2.445312 8.5 -3.054688 8.46875 -3.671875 C 8.445312 -4.296875 8.429688 -4.796875 8.421875 -5.171875 C 7.265625 -4.972656 6.128906 -4.800781 5.015625 -4.65625 C 4.984375 -4.289062 4.914062 -3.835938 4.8125 -3.296875 C 4.707031 -2.753906 4.546875 -2.234375 4.328125 -1.734375 C 4.117188 -1.234375 3.84375 -0.796875 3.5 -0.421875 C 3.15625 -0.0546875 2.738281 0.125 2.25 0.125 C 1.863281 0.125 1.5625 -0.015625 1.34375 -0.296875 C 1.132812 -0.578125 0.972656 -0.90625 0.859375 -1.28125 C 0.742188 -1.664062 0.675781 -2.0625 0.65625 -2.46875 C 0.632812 -2.875 0.625 -3.210938 0.625 -3.484375 C 0.625 -4.398438 0.691406 -5.300781 0.828125 -6.1875 C 0.972656 -7.070312 1.144531 -7.953125 1.34375 -8.828125 C 1.4375 -9.285156 1.5625 -9.820312 1.71875 -10.4375 C 1.875 -11.0625 2.066406 -11.703125 2.296875 -12.359375 C 2.535156 -13.023438 2.8125 -13.679688 3.125 -14.328125 C 3.4375 -14.972656 3.789062 -15.550781 4.1875 -16.0625 C 4.582031 -16.570312 5.035156 -16.988281 5.546875 -17.3125 C 6.054688 -17.632812 6.625 -17.796875 7.25 -17.796875 C 7.851562 -17.796875 8.378906 -17.65625 8.828125 -17.375 C 9.273438 -17.101562 9.664062 -16.742188 10 -16.296875 C 10.332031 -15.859375 10.609375 -15.351562 10.828125 -14.78125 C 11.054688 -14.21875 11.242188 -13.644531 11.390625 -13.0625 C 11.546875 -12.476562 11.675781 -11.90625 11.78125 -11.34375 C 11.882812 -10.789062 11.972656 -10.300781 12.046875 -9.875 C 12.253906 -8.84375 12.429688 -7.796875 12.578125 -6.734375 C 12.722656 -5.671875 12.796875 -4.601562 12.796875 -3.53125 Z M 8.171875 -9.34375 C 8.171875 -9.539062 8.160156 -9.859375 8.140625 -10.296875 C 8.117188 -10.734375 8.066406 -11.171875 7.984375 -11.609375 C 7.898438 -12.046875 7.773438 -12.4375 7.609375 -12.78125 C 7.441406 -13.125 7.21875 -13.296875 6.9375 -13.296875 C 6.769531 -13.296875 6.613281 -13.1875 6.46875 -12.96875 C 6.332031 -12.757812 6.207031 -12.488281 6.09375 -12.15625 C 5.988281 -11.832031 5.890625 -11.46875 5.796875 -11.0625 C 5.710938 -10.664062 5.632812 -10.285156 5.5625 -9.921875 C 5.5 -9.554688 5.453125 -9.222656 5.421875 -8.921875 C 5.390625 -8.628906 5.367188 -8.421875 5.359375 -8.296875 C 6.316406 -8.378906 7.253906 -8.5 8.171875 -8.65625 Z M 8.171875 -9.34375 "/></g></g></g><g fill="#ffffff" fill-opacity="1"><g transform="translate(62.262845, 26.519455)"><g><path d="M 9.015625 -8.9375 C 8.785156 -8.925781 8.59375 -8.945312 8.4375 -9 C 8.28125 -9.0625 8.125 -9.125 7.96875 -9.1875 C 7.820312 -9.25 7.675781 -9.304688 7.53125 -9.359375 C 7.382812 -9.410156 7.222656 -9.429688 7.046875 -9.421875 C 6.734375 -9.398438 6.453125 -9.3125 6.203125 -9.15625 C 5.953125 -9 5.726562 -8.800781 5.53125 -8.5625 C 5.332031 -8.320312 5.160156 -8.050781 5.015625 -7.75 C 4.878906 -7.457031 4.769531 -7.171875 4.6875 -6.890625 C 4.632812 -6.691406 4.597656 -6.394531 4.578125 -6 C 4.554688 -5.613281 4.546875 -5.203125 4.546875 -4.765625 C 4.523438 -4.296875 4.515625 -3.851562 4.515625 -3.4375 C 4.515625 -3.03125 4.5 -2.707031 4.46875 -2.46875 C 4.457031 -2.207031 4.414062 -1.90625 4.34375 -1.5625 C 4.28125 -1.21875 4.179688 -0.894531 4.046875 -0.59375 C 3.910156 -0.289062 3.734375 -0.0351562 3.515625 0.171875 C 3.296875 0.378906 3.007812 0.484375 2.65625 0.484375 C 2.382812 0.484375 2.148438 0.398438 1.953125 0.234375 C 1.753906 0.078125 1.585938 -0.128906 1.453125 -0.390625 C 1.316406 -0.648438 1.203125 -0.957031 1.109375 -1.3125 C 1.023438 -1.664062 0.957031 -2.023438 0.90625 -2.390625 C 0.863281 -2.773438 0.828125 -3.15625 0.796875 -3.53125 C 0.773438 -3.914062 0.757812 -4.28125 0.75 -4.625 C 0.738281 -4.96875 0.738281 -5.28125 0.75 -5.5625 C 0.757812 -5.851562 0.765625 -6.085938 0.765625 -6.265625 C 0.742188 -6.816406 0.710938 -7.375 0.671875 -7.9375 C 0.640625 -8.507812 0.625 -9.078125 0.625 -9.640625 C 0.625 -9.984375 0.640625 -10.367188 0.671875 -10.796875 C 0.703125 -11.234375 0.785156 -11.640625 0.921875 -12.015625 C 1.066406 -12.390625 1.28125 -12.703125 1.5625 -12.953125 C 1.84375 -13.210938 2.226562 -13.34375 2.71875 -13.34375 C 2.988281 -13.34375 3.21875 -13.253906 3.40625 -13.078125 C 3.601562 -12.898438 3.757812 -12.679688 3.875 -12.421875 C 4 -12.171875 4.09375 -11.898438 4.15625 -11.609375 C 4.21875 -11.328125 4.257812 -11.066406 4.28125 -10.828125 C 4.664062 -11.453125 5.09375 -11.957031 5.5625 -12.34375 C 6.039062 -12.738281 6.664062 -12.953125 7.4375 -12.984375 C 7.820312 -12.992188 8.203125 -12.957031 8.578125 -12.875 C 8.953125 -12.789062 9.289062 -12.644531 9.59375 -12.4375 C 9.90625 -12.238281 10.160156 -11.976562 10.359375 -11.65625 C 10.566406 -11.34375 10.675781 -10.972656 10.6875 -10.546875 C 10.71875 -10.035156 10.566406 -9.644531 10.234375 -9.375 C 9.898438 -9.101562 9.492188 -8.957031 9.015625 -8.9375 Z M 9.015625 -8.9375 "/></g></g></g><g fill="#ffffff" fill-opacity="1"><g transform="translate(72.58952, 26.519455)"><g><path d="M 9.59375 -9.1875 C 9.59375 -9.101562 9.582031 -9.015625 9.5625 -8.921875 C 9.550781 -8.835938 9.53125 -8.753906 9.5 -8.671875 C 9.351562 -8.304688 9.128906 -8 8.828125 -7.75 C 8.523438 -7.507812 8.164062 -7.390625 7.75 -7.390625 C 7.125 -7.390625 6.703125 -7.703125 6.484375 -8.328125 C 6.453125 -8.398438 6.4375 -8.488281 6.4375 -8.59375 C 6.4375 -8.695312 6.425781 -8.804688 6.40625 -8.921875 L 6.40625 -9.609375 C 6.375 -9.835938 6.316406 -10.015625 6.234375 -10.140625 C 6.160156 -10.265625 6.023438 -10.328125 5.828125 -10.328125 C 5.554688 -10.328125 5.296875 -10.15625 5.046875 -9.8125 C 4.804688 -9.46875 4.59375 -9.0625 4.40625 -8.59375 C 4.226562 -8.125 4.082031 -7.640625 3.96875 -7.140625 C 3.851562 -6.648438 3.796875 -6.253906 3.796875 -5.953125 C 3.796875 -5.710938 3.8125 -5.421875 3.84375 -5.078125 C 3.875 -4.734375 3.9375 -4.398438 4.03125 -4.078125 C 4.132812 -3.765625 4.269531 -3.492188 4.4375 -3.265625 C 4.601562 -3.035156 4.820312 -2.921875 5.09375 -2.921875 C 5.363281 -2.921875 5.613281 -3.003906 5.84375 -3.171875 C 6.070312 -3.335938 6.300781 -3.53125 6.53125 -3.75 C 6.738281 -3.945312 6.960938 -4.144531 7.203125 -4.34375 C 7.453125 -4.550781 7.738281 -4.65625 8.0625 -4.65625 C 8.457031 -4.65625 8.769531 -4.507812 9 -4.21875 C 9.226562 -3.9375 9.34375 -3.613281 9.34375 -3.25 C 9.34375 -2.707031 9.195312 -2.203125 8.90625 -1.734375 C 8.625 -1.265625 8.269531 -0.859375 7.84375 -0.515625 C 7.414062 -0.171875 6.9375 0.0976562 6.40625 0.296875 C 5.882812 0.492188 5.382812 0.59375 4.90625 0.59375 C 4.039062 0.59375 3.304688 0.378906 2.703125 -0.046875 C 2.109375 -0.472656 1.628906 -1.015625 1.265625 -1.671875 C 0.898438 -2.335938 0.632812 -3.0625 0.46875 -3.84375 C 0.3125 -4.625 0.234375 -5.367188 0.234375 -6.078125 C 0.234375 -6.890625 0.34375 -7.769531 0.5625 -8.71875 C 0.789062 -9.664062 1.132812 -10.546875 1.59375 -11.359375 C 2.0625 -12.171875 2.65625 -12.847656 3.375 -13.390625 C 4.101562 -13.929688 4.972656 -14.203125 5.984375 -14.203125 C 6.597656 -14.203125 7.128906 -14.066406 7.578125 -13.796875 C 8.035156 -13.523438 8.410156 -13.171875 8.703125 -12.734375 C 9.003906 -12.296875 9.226562 -11.804688 9.375 -11.265625 C 9.53125 -10.722656 9.609375 -10.1875 9.609375 -9.65625 C 9.609375 -9.582031 9.609375 -9.503906 9.609375 -9.421875 C 9.609375 -9.335938 9.601562 -9.257812 9.59375 -9.1875 Z M 9.59375 -9.1875 "/></g></g></g><g fill="#ffffff" fill-opacity="1"><g transform="translate(82.796673, 26.519455)"><g><path d="M 10.765625 -15.828125 C 10.765625 -15.742188 10.6875 -15.507812 10.53125 -15.125 C 10.382812 -14.75 10.179688 -14.28125 9.921875 -13.71875 C 9.671875 -13.164062 9.378906 -12.539062 9.046875 -11.84375 C 8.722656 -11.15625 8.382812 -10.445312 8.03125 -9.71875 C 7.6875 -8.988281 7.34375 -8.273438 7 -7.578125 C 6.664062 -6.878906 6.359375 -6.242188 6.078125 -5.671875 C 5.804688 -5.109375 5.570312 -4.628906 5.375 -4.234375 C 5.1875 -3.847656 5.066406 -3.609375 5.015625 -3.515625 C 5.515625 -3.671875 6.019531 -3.800781 6.53125 -3.90625 C 7.050781 -4.007812 7.578125 -4.0625 8.109375 -4.0625 C 8.359375 -4.0625 8.625 -4.039062 8.90625 -4 C 9.195312 -3.957031 9.46875 -3.878906 9.71875 -3.765625 C 9.96875 -3.648438 10.175781 -3.488281 10.34375 -3.28125 C 10.507812 -3.082031 10.59375 -2.816406 10.59375 -2.484375 C 10.59375 -2.128906 10.472656 -1.8125 10.234375 -1.53125 C 9.992188 -1.257812 9.6875 -1.019531 9.3125 -0.8125 C 8.9375 -0.601562 8.507812 -0.425781 8.03125 -0.28125 C 7.550781 -0.144531 7.070312 -0.03125 6.59375 0.0625 C 6.113281 0.164062 5.660156 0.234375 5.234375 0.265625 C 4.804688 0.304688 4.445312 0.328125 4.15625 0.328125 C 3.789062 0.328125 3.390625 0.3125 2.953125 0.28125 C 2.515625 0.25 2.09375 0.160156 1.6875 0.015625 C 1.289062 -0.117188 0.960938 -0.328125 0.703125 -0.609375 C 0.441406 -0.890625 0.3125 -1.285156 0.3125 -1.796875 C 0.3125 -2.140625 0.410156 -2.609375 0.609375 -3.203125 C 0.804688 -3.804688 1.039062 -4.421875 1.3125 -5.046875 C 1.582031 -5.679688 1.863281 -6.289062 2.15625 -6.875 C 2.457031 -7.457031 2.695312 -7.914062 2.875 -8.25 C 3.414062 -9.25 3.957031 -10.25 4.5 -11.25 C 5.050781 -12.25 5.59375 -13.257812 6.125 -14.28125 C 5.5625 -13.957031 4.921875 -13.660156 4.203125 -13.390625 C 3.484375 -13.128906 2.804688 -13 2.171875 -13 C 1.953125 -13 1.71875 -13.03125 1.46875 -13.09375 C 1.21875 -13.164062 0.992188 -13.257812 0.796875 -13.375 C 0.597656 -13.5 0.4375 -13.65625 0.3125 -13.84375 C 0.1875 -14.03125 0.125 -14.253906 0.125 -14.515625 C 0.125 -14.929688 0.257812 -15.3125 0.53125 -15.65625 C 0.800781 -16.007812 1.15625 -16.328125 1.59375 -16.609375 C 2.03125 -16.898438 2.519531 -17.15625 3.0625 -17.375 C 3.613281 -17.601562 4.171875 -17.785156 4.734375 -17.921875 C 5.296875 -18.066406 5.828125 -18.179688 6.328125 -18.265625 C 6.828125 -18.347656 7.253906 -18.390625 7.609375 -18.390625 C 8.523438 -18.390625 9.28125 -18.203125 9.875 -17.828125 C 10.46875 -17.460938 10.765625 -16.796875 10.765625 -15.828125 Z M 10.765625 -15.828125 "/></g></g></g><g fill="#ffffff" fill-opacity="1"><g transform="translate(93.290678, 26.519455)"><g><path d="M 10.875 -3.375 C 10.875 -3.082031 10.863281 -2.703125 10.84375 -2.234375 C 10.820312 -1.773438 10.753906 -1.328125 10.640625 -0.890625 C 10.523438 -0.453125 10.347656 -0.078125 10.109375 0.234375 C 9.867188 0.554688 9.535156 0.71875 9.109375 0.71875 C 8.515625 0.71875 8.054688 0.523438 7.734375 0.140625 C 7.421875 -0.242188 7.273438 -0.722656 7.296875 -1.296875 C 6.785156 -0.847656 6.207031 -0.492188 5.5625 -0.234375 C 4.914062 0.015625 4.257812 0.140625 3.59375 0.140625 C 3.125 0.140625 2.679688 0.03125 2.265625 -0.1875 C 1.859375 -0.414062 1.492188 -0.703125 1.171875 -1.046875 C 0.847656 -1.398438 0.59375 -1.796875 0.40625 -2.234375 C 0.21875 -2.671875 0.125 -3.101562 0.125 -3.53125 C 0.125 -4.300781 0.359375 -4.972656 0.828125 -5.546875 C 1.296875 -6.117188 1.875 -6.609375 2.5625 -7.015625 C 3.25 -7.421875 3.976562 -7.742188 4.75 -7.984375 C 5.519531 -8.222656 6.207031 -8.382812 6.8125 -8.46875 C 6.8125 -8.539062 6.816406 -8.609375 6.828125 -8.671875 C 6.835938 -8.742188 6.84375 -8.816406 6.84375 -8.890625 C 6.84375 -9.390625 6.707031 -9.789062 6.4375 -10.09375 C 6.164062 -10.394531 5.78125 -10.546875 5.28125 -10.546875 C 4.882812 -10.546875 4.539062 -10.476562 4.25 -10.34375 C 3.96875 -10.207031 3.695312 -10.054688 3.4375 -9.890625 C 3.1875 -9.722656 2.929688 -9.570312 2.671875 -9.4375 C 2.421875 -9.300781 2.132812 -9.234375 1.8125 -9.234375 C 1.46875 -9.234375 1.171875 -9.34375 0.921875 -9.5625 C 0.671875 -9.789062 0.546875 -10.078125 0.546875 -10.421875 C 0.546875 -10.953125 0.703125 -11.429688 1.015625 -11.859375 C 1.328125 -12.285156 1.71875 -12.644531 2.1875 -12.9375 C 2.65625 -13.238281 3.164062 -13.472656 3.71875 -13.640625 C 4.269531 -13.804688 4.773438 -13.890625 5.234375 -13.890625 C 5.660156 -13.890625 6.085938 -13.835938 6.515625 -13.734375 C 6.953125 -13.628906 7.363281 -13.46875 7.75 -13.25 C 8.132812 -13.039062 8.476562 -12.78125 8.78125 -12.46875 C 9.09375 -12.15625 9.347656 -11.789062 9.546875 -11.375 C 9.828125 -10.789062 10.054688 -10.164062 10.234375 -9.5 C 10.410156 -8.84375 10.546875 -8.164062 10.640625 -7.46875 C 10.734375 -6.78125 10.796875 -6.085938 10.828125 -5.390625 C 10.859375 -4.703125 10.875 -4.03125 10.875 -3.375 Z M 7.046875 -4.140625 L 6.984375 -5.765625 C 6.953125 -5.765625 6.921875 -5.765625 6.890625 -5.765625 C 6.859375 -5.773438 6.828125 -5.78125 6.796875 -5.78125 C 6.585938 -5.78125 6.328125 -5.726562 6.015625 -5.625 C 5.703125 -5.519531 5.398438 -5.375 5.109375 -5.1875 C 4.828125 -5.007812 4.585938 -4.804688 4.390625 -4.578125 C 4.191406 -4.359375 4.09375 -4.128906 4.09375 -3.890625 C 4.09375 -3.671875 4.171875 -3.519531 4.328125 -3.4375 C 4.484375 -3.363281 4.664062 -3.328125 4.875 -3.328125 C 5.226562 -3.328125 5.601562 -3.414062 6 -3.59375 C 6.394531 -3.78125 6.742188 -3.960938 7.046875 -4.140625 Z M 7.046875 -4.140625 "/></g></g></g><g fill="#ffffff" fill-opacity="1"><g transform="translate(104.884283, 26.519455)"><g><path d="M 15.234375 -7.890625 C 15.234375 -7.585938 15.234375 -7.175781 15.234375 -6.65625 C 15.234375 -6.132812 15.21875 -5.570312 15.1875 -4.96875 C 15.164062 -4.363281 15.113281 -3.753906 15.03125 -3.140625 C 14.957031 -2.523438 14.835938 -1.96875 14.671875 -1.46875 C 14.503906 -0.976562 14.289062 -0.570312 14.03125 -0.25 C 13.78125 0.0625 13.457031 0.21875 13.0625 0.21875 C 12.707031 0.21875 12.4375 0.0703125 12.25 -0.21875 C 12.070312 -0.519531 11.941406 -0.867188 11.859375 -1.265625 C 11.773438 -1.660156 11.726562 -2.066406 11.71875 -2.484375 C 11.71875 -2.898438 11.71875 -3.226562 11.71875 -3.46875 C 11.71875 -4.1875 11.738281 -4.882812 11.78125 -5.5625 C 11.832031 -6.25 11.859375 -6.953125 11.859375 -7.671875 C 11.859375 -7.753906 11.859375 -7.898438 11.859375 -8.109375 C 11.859375 -8.316406 11.84375 -8.519531 11.8125 -8.71875 C 11.78125 -8.925781 11.726562 -9.109375 11.65625 -9.265625 C 11.582031 -9.429688 11.472656 -9.515625 11.328125 -9.515625 C 11.046875 -9.515625 10.816406 -9.363281 10.640625 -9.0625 C 10.460938 -8.769531 10.316406 -8.425781 10.203125 -8.03125 C 10.097656 -7.632812 10.019531 -7.238281 9.96875 -6.84375 C 9.925781 -6.457031 9.894531 -6.171875 9.875 -5.984375 C 9.84375 -5.773438 9.8125 -5.460938 9.78125 -5.046875 C 9.757812 -4.628906 9.726562 -4.171875 9.6875 -3.671875 C 9.65625 -3.179688 9.59375 -2.675781 9.5 -2.15625 C 9.414062 -1.644531 9.304688 -1.175781 9.171875 -0.75 C 9.035156 -0.332031 8.863281 0.0078125 8.65625 0.28125 C 8.445312 0.550781 8.191406 0.6875 7.890625 0.6875 C 7.503906 0.6875 7.207031 0.519531 7 0.1875 C 6.789062 -0.144531 6.640625 -0.535156 6.546875 -0.984375 C 6.453125 -1.429688 6.394531 -1.882812 6.375 -2.34375 C 6.351562 -2.800781 6.34375 -3.160156 6.34375 -3.421875 C 6.34375 -3.691406 6.34375 -3.953125 6.34375 -4.203125 C 6.351562 -4.460938 6.359375 -4.726562 6.359375 -5 C 6.359375 -5.113281 6.359375 -5.296875 6.359375 -5.546875 C 6.359375 -5.804688 6.351562 -6.085938 6.34375 -6.390625 C 6.34375 -6.703125 6.328125 -7.023438 6.296875 -7.359375 C 6.273438 -7.691406 6.238281 -8 6.1875 -8.28125 C 6.144531 -8.5625 6.070312 -8.789062 5.96875 -8.96875 C 5.875 -9.144531 5.765625 -9.234375 5.640625 -9.234375 C 5.429688 -9.234375 5.238281 -9.097656 5.0625 -8.828125 C 4.894531 -8.566406 4.742188 -8.253906 4.609375 -7.890625 C 4.484375 -7.535156 4.382812 -7.179688 4.3125 -6.828125 C 4.238281 -6.484375 4.203125 -6.234375 4.203125 -6.078125 L 4.203125 -5.9375 C 4.203125 -5.164062 4.25 -4.410156 4.34375 -3.671875 C 4.445312 -2.941406 4.5 -2.195312 4.5 -1.4375 C 4.5 -0.988281 4.351562 -0.578125 4.0625 -0.203125 C 3.78125 0.171875 3.382812 0.359375 2.875 0.359375 C 2.5 0.359375 2.191406 0.21875 1.953125 -0.0625 C 1.722656 -0.34375 1.523438 -0.703125 1.359375 -1.140625 C 1.203125 -1.585938 1.078125 -2.078125 0.984375 -2.609375 C 0.898438 -3.148438 0.84375 -3.675781 0.8125 -4.1875 C 0.78125 -4.707031 0.757812 -5.175781 0.75 -5.59375 C 0.738281 -6.019531 0.734375 -6.335938 0.734375 -6.546875 C 0.734375 -6.785156 0.726562 -7.132812 0.71875 -7.59375 C 0.71875 -8.0625 0.726562 -8.566406 0.75 -9.109375 C 0.769531 -9.648438 0.8125 -10.203125 0.875 -10.765625 C 0.945312 -11.335938 1.050781 -11.851562 1.1875 -12.3125 C 1.332031 -12.769531 1.519531 -13.144531 1.75 -13.4375 C 1.988281 -13.738281 2.289062 -13.890625 2.65625 -13.890625 C 3.070312 -13.890625 3.410156 -13.773438 3.671875 -13.546875 C 3.929688 -13.328125 4.0625 -12.992188 4.0625 -12.546875 C 4.0625 -12.453125 4.054688 -12.359375 4.046875 -12.265625 C 4.046875 -12.171875 4.035156 -12.082031 4.015625 -12 C 4.191406 -12.257812 4.40625 -12.519531 4.65625 -12.78125 C 4.914062 -13.039062 5.191406 -13.273438 5.484375 -13.484375 C 5.785156 -13.703125 6.101562 -13.878906 6.4375 -14.015625 C 6.769531 -14.160156 7.101562 -14.234375 7.4375 -14.234375 C 7.757812 -14.234375 8.046875 -14.144531 8.296875 -13.96875 C 8.546875 -13.789062 8.765625 -13.566406 8.953125 -13.296875 C 9.148438 -13.035156 9.3125 -12.753906 9.4375 -12.453125 C 9.570312 -12.148438 9.660156 -11.863281 9.703125 -11.59375 C 9.867188 -11.882812 10.066406 -12.175781 10.296875 -12.46875 C 10.523438 -12.757812 10.773438 -13.015625 11.046875 -13.234375 C 11.316406 -13.460938 11.613281 -13.648438 11.9375 -13.796875 C 12.269531 -13.941406 12.609375 -14.015625 12.953125 -14.015625 C 13.296875 -14.015625 13.582031 -13.894531 13.8125 -13.65625 C 14.050781 -13.414062 14.257812 -13.109375 14.4375 -12.734375 C 14.613281 -12.359375 14.75 -11.9375 14.84375 -11.46875 C 14.9375 -11 15.015625 -10.535156 15.078125 -10.078125 C 15.148438 -9.617188 15.191406 -9.191406 15.203125 -8.796875 C 15.222656 -8.410156 15.234375 -8.109375 15.234375 -7.890625 Z M 15.234375 -7.890625 "/></g></g></g></svg>