<svg xmlns="http://www.w3.org/2000/svg" xmlns:xlink="http://www.w3.org/1999/xlink" width="176" zoomAndPan="magnify" viewBox="0 0 132 38.999999" height="52" preserveAspectRatio="xMidYMid meet" version="1.0"><defs><g/><clipPath id="5d9fd43873"><path d="M 2.082031 7.304688 L 41.769531 7.304688 L 41.769531 35 L 2.082031 35 Z M 2.082031 7.304688 " clip-rule="nonzero"/></clipPath></defs><g clip-path="url(#5d9fd43873)"><path fill="#333333" d="M 2.082031 16.066406 L 2.082031 16.136719 L 17.925781 23.46875 L 33.824219 16.109375 L 33.824219 16.09375 L 17.925781 8.734375 Z M 7.792969 16.101562 L 17.925781 11.414062 L 28.058594 16.101562 L 17.925781 20.789062 Z M 17.925781 26.316406 L 2.082031 19.09375 L 2.082031 21.765625 L 17.925781 29.003906 L 33.824219 21.738281 L 33.824219 19.066406 Z M 17.925781 31.730469 L 2.082031 24.507812 L 2.082031 27.179688 L 17.925781 34.421875 L 33.824219 27.15625 L 33.824219 24.484375 Z M 92.191406 21.3125 C 92.203125 20.105469 91.796875 19.058594 90.976562 18.175781 C 90.601562 17.773438 90.160156 17.457031 89.660156 17.234375 C 89.148438 17.003906 88.613281 16.890625 88.054688 16.894531 C 87.492188 16.890625 86.957031 17.003906 86.449219 17.234375 C 85.945312 17.457031 85.507812 17.773438 85.128906 18.175781 C 84.308594 19.058594 83.902344 20.105469 83.914062 21.3125 C 83.902344 22.519531 84.308594 23.566406 85.128906 24.453125 C 85.507812 24.855469 85.945312 25.167969 86.449219 25.394531 C 86.957031 25.625 87.492188 25.738281 88.054688 25.734375 C 88.613281 25.738281 89.148438 25.625 89.660156 25.394531 C 90.160156 25.167969 90.601562 24.855469 90.976562 24.453125 C 91.796875 23.566406 92.203125 22.519531 92.191406 21.3125 Z M 95.804688 21.3125 C 95.804688 22.402344 95.605469 23.410156 95.203125 24.339844 C 94.8125 25.253906 94.261719 26.058594 93.546875 26.75 C 92.84375 27.429688 92.019531 27.964844 91.074219 28.355469 C 90.132812 28.75 89.125 28.949219 88.054688 28.949219 C 86.984375 28.949219 85.980469 28.75 85.042969 28.355469 C 84.121094 27.976562 83.300781 27.433594 82.582031 26.738281 C 81.871094 26.039062 81.320312 25.230469 80.929688 24.3125 C 80.527344 23.386719 80.324219 22.386719 80.324219 21.3125 C 80.324219 20.257812 80.53125 19.265625 80.941406 18.339844 C 81.339844 17.417969 81.898438 16.609375 82.609375 15.902344 C 83.324219 15.199219 84.140625 14.652344 85.066406 14.269531 C 86.003906 13.875 87 13.679688 88.054688 13.679688 C 89.125 13.679688 90.132812 13.875 91.074219 14.269531 C 92.019531 14.664062 92.84375 15.199219 93.546875 15.878906 C 94.25 16.554688 94.800781 17.363281 95.203125 18.300781 C 95.605469 19.238281 95.804688 20.242188 95.804688 21.3125 Z M 79.070312 28.496094 C 78.761719 28.636719 78.4375 28.746094 78.105469 28.820312 C 77.738281 28.90625 77.367188 28.949219 76.988281 28.949219 C 76.453125 28.949219 75.941406 28.875 75.445312 28.734375 C 74.964844 28.601562 74.535156 28.371094 74.15625 28.042969 C 73.785156 27.726562 73.496094 27.3125 73.277344 26.800781 C 73.058594 26.289062 72.949219 25.675781 72.949219 24.953125 L 72.949219 7.730469 L 76.636719 7.730469 L 76.636719 24.328125 C 76.636719 24.929688 76.757812 25.34375 77.003906 25.570312 C 77.246094 25.796875 77.53125 25.910156 77.867188 25.910156 C 78.285156 25.910156 78.6875 25.785156 79.070312 25.53125 Z M 71.320312 14.03125 L 64.796875 31.28125 C 64.3125 32.570312 63.675781 33.5 62.890625 34.070312 C 62.105469 34.640625 61.167969 34.925781 60.078125 34.925781 C 59.894531 34.921875 59.710938 34.910156 59.527344 34.886719 C 59.332031 34.863281 59.140625 34.824219 58.953125 34.773438 L 57.746094 31.410156 C 58.03125 31.542969 58.324219 31.648438 58.625 31.722656 C 58.90625 31.796875 59.1875 31.832031 59.476562 31.835938 C 60.046875 31.835938 60.566406 31.707031 61.035156 31.445312 C 61.5 31.1875 61.859375 30.707031 62.113281 30.003906 L 62.613281 28.546875 L 57.019531 14.03125 L 60.957031 14.03125 L 64.292969 23.371094 L 67.429688 14.03125 Z M 56.140625 11.847656 L 46.710938 11.847656 L 46.710938 16.519531 L 56.015625 16.519531 L 56.015625 19.683594 L 46.710938 19.683594 L 46.710938 28.570312 L 42.894531 28.570312 L 42.894531 8.507812 L 56.140625 8.507812 Z M 56.140625 11.847656 " fill-opacity="1" fill-rule="evenodd"/></g><g fill="#333333" fill-opacity="1"><g transform="translate(45.093024, 28.122834)"><g><path d="M 12.53125 -3.46875 C 12.53125 -3.15625 12.5 -2.78125 12.4375 -2.34375 C 12.382812 -1.90625 12.28125 -1.484375 12.125 -1.078125 C 11.976562 -0.679688 11.769531 -0.347656 11.5 -0.078125 C 11.238281 0.191406 10.890625 0.328125 10.453125 0.328125 C 9.867188 0.328125 9.429688 0.117188 9.140625 -0.296875 C 8.859375 -0.722656 8.65625 -1.226562 8.53125 -1.8125 C 8.40625 -2.394531 8.328125 -2.988281 8.296875 -3.59375 C 8.273438 -4.207031 8.257812 -4.695312 8.25 -5.0625 C 7.125 -4.875 6.015625 -4.707031 4.921875 -4.5625 C 4.890625 -4.207031 4.820312 -3.765625 4.71875 -3.234375 C 4.613281 -2.703125 4.457031 -2.1875 4.25 -1.6875 C 4.039062 -1.195312 3.765625 -0.773438 3.421875 -0.421875 C 3.085938 -0.0664062 2.679688 0.109375 2.203125 0.109375 C 1.828125 0.109375 1.53125 -0.0234375 1.3125 -0.296875 C 1.101562 -0.566406 0.941406 -0.890625 0.828125 -1.265625 C 0.722656 -1.640625 0.660156 -2.023438 0.640625 -2.421875 C 0.617188 -2.816406 0.609375 -3.148438 0.609375 -3.421875 C 0.609375 -4.304688 0.675781 -5.179688 0.8125 -6.046875 C 0.957031 -6.921875 1.125 -7.785156 1.3125 -8.640625 C 1.40625 -9.097656 1.53125 -9.628906 1.6875 -10.234375 C 1.84375 -10.847656 2.03125 -11.476562 2.25 -12.125 C 2.476562 -12.769531 2.742188 -13.40625 3.046875 -14.03125 C 3.359375 -14.664062 3.707031 -15.234375 4.09375 -15.734375 C 4.488281 -16.234375 4.9375 -16.640625 5.4375 -16.953125 C 5.9375 -17.265625 6.488281 -17.421875 7.09375 -17.421875 C 7.6875 -17.421875 8.203125 -17.285156 8.640625 -17.015625 C 9.078125 -16.753906 9.457031 -16.40625 9.78125 -15.96875 C 10.113281 -15.53125 10.390625 -15.035156 10.609375 -14.484375 C 10.828125 -13.929688 11.007812 -13.367188 11.15625 -12.796875 C 11.3125 -12.234375 11.4375 -11.675781 11.53125 -11.125 C 11.632812 -10.582031 11.726562 -10.097656 11.8125 -9.671875 C 12.007812 -8.660156 12.175781 -7.632812 12.3125 -6.59375 C 12.457031 -5.550781 12.53125 -4.507812 12.53125 -3.46875 Z M 8.015625 -9.15625 C 8.015625 -9.34375 8 -9.648438 7.96875 -10.078125 C 7.945312 -10.515625 7.894531 -10.945312 7.8125 -11.375 C 7.738281 -11.800781 7.617188 -12.179688 7.453125 -12.515625 C 7.296875 -12.847656 7.078125 -13.015625 6.796875 -13.015625 C 6.640625 -13.015625 6.488281 -12.910156 6.34375 -12.703125 C 6.207031 -12.492188 6.082031 -12.226562 5.96875 -11.90625 C 5.863281 -11.59375 5.765625 -11.238281 5.671875 -10.84375 C 5.585938 -10.457031 5.515625 -10.082031 5.453125 -9.71875 C 5.390625 -9.363281 5.34375 -9.039062 5.3125 -8.75 C 5.28125 -8.457031 5.257812 -8.25 5.25 -8.125 C 6.1875 -8.207031 7.109375 -8.328125 8.015625 -8.484375 Z M 8.015625 -9.15625 "/></g></g></g><g fill="#333333" fill-opacity="1"><g transform="translate(58.446443, 28.122834)"><g><path d="M 8.828125 -8.765625 C 8.609375 -8.742188 8.421875 -8.757812 8.265625 -8.8125 C 8.109375 -8.875 7.953125 -8.9375 7.796875 -9 C 7.660156 -9.0625 7.519531 -9.117188 7.375 -9.171875 C 7.238281 -9.222656 7.082031 -9.242188 6.90625 -9.234375 C 6.59375 -9.210938 6.316406 -9.125 6.078125 -8.96875 C 5.835938 -8.8125 5.617188 -8.613281 5.421875 -8.375 C 5.222656 -8.144531 5.050781 -7.882812 4.90625 -7.59375 C 4.769531 -7.3125 4.664062 -7.03125 4.59375 -6.75 C 4.539062 -6.5625 4.503906 -6.273438 4.484375 -5.890625 C 4.460938 -5.503906 4.453125 -5.09375 4.453125 -4.65625 C 4.429688 -4.207031 4.421875 -3.78125 4.421875 -3.375 C 4.421875 -2.96875 4.40625 -2.644531 4.375 -2.40625 C 4.363281 -2.15625 4.328125 -1.863281 4.265625 -1.53125 C 4.203125 -1.195312 4.101562 -0.878906 3.96875 -0.578125 C 3.832031 -0.285156 3.65625 -0.0390625 3.4375 0.15625 C 3.21875 0.363281 2.9375 0.46875 2.59375 0.46875 C 2.332031 0.46875 2.101562 0.390625 1.90625 0.234375 C 1.707031 0.078125 1.539062 -0.125 1.40625 -0.375 C 1.28125 -0.632812 1.171875 -0.9375 1.078125 -1.28125 C 0.992188 -1.625 0.929688 -1.976562 0.890625 -2.34375 C 0.835938 -2.71875 0.800781 -3.09375 0.78125 -3.46875 C 0.757812 -3.84375 0.742188 -4.195312 0.734375 -4.53125 C 0.722656 -4.863281 0.722656 -5.171875 0.734375 -5.453125 C 0.742188 -5.734375 0.75 -5.960938 0.75 -6.140625 C 0.726562 -6.679688 0.695312 -7.226562 0.65625 -7.78125 C 0.625 -8.34375 0.609375 -8.894531 0.609375 -9.4375 C 0.609375 -9.78125 0.625 -10.160156 0.65625 -10.578125 C 0.6875 -11.003906 0.769531 -11.398438 0.90625 -11.765625 C 1.050781 -12.128906 1.257812 -12.4375 1.53125 -12.6875 C 1.800781 -12.9375 2.179688 -13.0625 2.671875 -13.0625 C 2.929688 -13.0625 3.15625 -12.972656 3.34375 -12.796875 C 3.53125 -12.628906 3.679688 -12.421875 3.796875 -12.171875 C 3.921875 -11.929688 4.015625 -11.671875 4.078125 -11.390625 C 4.140625 -11.109375 4.175781 -10.847656 4.1875 -10.609375 C 4.5625 -11.222656 4.984375 -11.71875 5.453125 -12.09375 C 5.921875 -12.476562 6.53125 -12.6875 7.28125 -12.71875 C 7.65625 -12.726562 8.023438 -12.691406 8.390625 -12.609375 C 8.765625 -12.523438 9.101562 -12.382812 9.40625 -12.1875 C 9.707031 -12 9.957031 -11.75 10.15625 -11.4375 C 10.351562 -11.125 10.457031 -10.753906 10.46875 -10.328125 C 10.5 -9.828125 10.347656 -9.441406 10.015625 -9.171875 C 9.691406 -8.910156 9.296875 -8.773438 8.828125 -8.765625 Z M 8.828125 -8.765625 "/></g></g></g><g fill="#333333" fill-opacity="1"><g transform="translate(68.566929, 28.122834)"><g><path d="M 9.390625 -9 C 9.390625 -8.914062 9.378906 -8.832031 9.359375 -8.75 C 9.347656 -8.664062 9.328125 -8.582031 9.296875 -8.5 C 9.160156 -8.144531 8.941406 -7.84375 8.640625 -7.59375 C 8.347656 -7.351562 8 -7.234375 7.59375 -7.234375 C 6.976562 -7.234375 6.5625 -7.539062 6.34375 -8.15625 C 6.3125 -8.226562 6.296875 -8.316406 6.296875 -8.421875 C 6.296875 -8.523438 6.289062 -8.628906 6.28125 -8.734375 L 6.28125 -9.421875 C 6.25 -9.640625 6.191406 -9.8125 6.109375 -9.9375 C 6.035156 -10.0625 5.90625 -10.125 5.71875 -10.125 C 5.445312 -10.125 5.191406 -9.953125 4.953125 -9.609375 C 4.710938 -9.273438 4.5 -8.878906 4.3125 -8.421875 C 4.132812 -7.960938 3.988281 -7.488281 3.875 -7 C 3.769531 -6.519531 3.71875 -6.128906 3.71875 -5.828125 C 3.71875 -5.597656 3.734375 -5.3125 3.765625 -4.96875 C 3.796875 -4.632812 3.859375 -4.3125 3.953125 -4 C 4.046875 -3.6875 4.175781 -3.414062 4.34375 -3.1875 C 4.507812 -2.96875 4.722656 -2.859375 4.984375 -2.859375 C 5.253906 -2.859375 5.5 -2.9375 5.71875 -3.09375 C 5.945312 -3.257812 6.171875 -3.453125 6.390625 -3.671875 C 6.597656 -3.859375 6.820312 -4.050781 7.0625 -4.25 C 7.300781 -4.457031 7.578125 -4.5625 7.890625 -4.5625 C 8.285156 -4.5625 8.59375 -4.421875 8.8125 -4.140625 C 9.039062 -3.859375 9.15625 -3.539062 9.15625 -3.1875 C 9.15625 -2.65625 9.015625 -2.15625 8.734375 -1.6875 C 8.453125 -1.226562 8.097656 -0.832031 7.671875 -0.5 C 7.253906 -0.164062 6.785156 0.09375 6.265625 0.28125 C 5.753906 0.476562 5.265625 0.578125 4.796875 0.578125 C 3.953125 0.578125 3.238281 0.367188 2.65625 -0.046875 C 2.070312 -0.460938 1.597656 -0.992188 1.234375 -1.640625 C 0.878906 -2.296875 0.625 -3.003906 0.46875 -3.765625 C 0.3125 -4.535156 0.234375 -5.265625 0.234375 -5.953125 C 0.234375 -6.742188 0.34375 -7.601562 0.5625 -8.53125 C 0.78125 -9.46875 1.113281 -10.332031 1.5625 -11.125 C 2.019531 -11.914062 2.601562 -12.578125 3.3125 -13.109375 C 4.019531 -13.640625 4.867188 -13.90625 5.859375 -13.90625 C 6.460938 -13.90625 6.988281 -13.769531 7.4375 -13.5 C 7.882812 -13.238281 8.25 -12.894531 8.53125 -12.46875 C 8.820312 -12.039062 9.039062 -11.5625 9.1875 -11.03125 C 9.34375 -10.5 9.421875 -9.976562 9.421875 -9.46875 C 9.421875 -9.382812 9.421875 -9.300781 9.421875 -9.21875 C 9.421875 -9.144531 9.410156 -9.070312 9.390625 -9 Z M 9.390625 -9 "/></g></g></g><g fill="#333333" fill-opacity="1"><g transform="translate(78.57028, 28.122834)"><g><path d="M 10.546875 -15.5 C 10.546875 -15.425781 10.46875 -15.203125 10.3125 -14.828125 C 10.164062 -14.453125 9.96875 -13.988281 9.71875 -13.4375 C 9.46875 -12.894531 9.179688 -12.285156 8.859375 -11.609375 C 8.546875 -10.929688 8.21875 -10.234375 7.875 -9.515625 C 7.53125 -8.804688 7.191406 -8.109375 6.859375 -7.421875 C 6.535156 -6.734375 6.234375 -6.113281 5.953125 -5.5625 C 5.679688 -5.007812 5.453125 -4.539062 5.265625 -4.15625 C 5.078125 -3.769531 4.960938 -3.53125 4.921875 -3.4375 C 5.398438 -3.59375 5.894531 -3.722656 6.40625 -3.828125 C 6.914062 -3.929688 7.425781 -3.984375 7.9375 -3.984375 C 8.1875 -3.984375 8.453125 -3.960938 8.734375 -3.921875 C 9.015625 -3.878906 9.273438 -3.800781 9.515625 -3.6875 C 9.765625 -3.570312 9.96875 -3.414062 10.125 -3.21875 C 10.289062 -3.019531 10.375 -2.757812 10.375 -2.4375 C 10.375 -2.09375 10.253906 -1.78125 10.015625 -1.5 C 9.785156 -1.226562 9.488281 -0.988281 9.125 -0.78125 C 8.757812 -0.582031 8.34375 -0.410156 7.875 -0.265625 C 7.40625 -0.128906 6.9375 -0.0195312 6.46875 0.0625 C 6 0.15625 5.550781 0.222656 5.125 0.265625 C 4.707031 0.304688 4.359375 0.328125 4.078125 0.328125 C 3.710938 0.328125 3.316406 0.3125 2.890625 0.28125 C 2.460938 0.25 2.050781 0.160156 1.65625 0.015625 C 1.269531 -0.117188 0.945312 -0.320312 0.6875 -0.59375 C 0.425781 -0.863281 0.296875 -1.25 0.296875 -1.75 C 0.296875 -2.09375 0.394531 -2.554688 0.59375 -3.140625 C 0.789062 -3.734375 1.019531 -4.335938 1.28125 -4.953125 C 1.550781 -5.566406 1.828125 -6.160156 2.109375 -6.734375 C 2.398438 -7.304688 2.632812 -7.753906 2.8125 -8.078125 C 3.34375 -9.066406 3.875 -10.046875 4.40625 -11.015625 C 4.945312 -11.992188 5.476562 -12.984375 6 -13.984375 C 5.445312 -13.671875 4.816406 -13.382812 4.109375 -13.125 C 3.410156 -12.863281 2.75 -12.734375 2.125 -12.734375 C 1.90625 -12.734375 1.675781 -12.765625 1.4375 -12.828125 C 1.195312 -12.890625 0.976562 -12.976562 0.78125 -13.09375 C 0.582031 -13.21875 0.421875 -13.375 0.296875 -13.5625 C 0.171875 -13.75 0.109375 -13.96875 0.109375 -14.21875 C 0.109375 -14.625 0.238281 -15 0.5 -15.34375 C 0.769531 -15.6875 1.117188 -16 1.546875 -16.28125 C 1.984375 -16.5625 2.46875 -16.8125 3 -17.03125 C 3.539062 -17.25 4.082031 -17.425781 4.625 -17.5625 C 5.175781 -17.707031 5.695312 -17.816406 6.1875 -17.890625 C 6.6875 -17.972656 7.109375 -18.015625 7.453125 -18.015625 C 8.359375 -18.015625 9.097656 -17.832031 9.671875 -17.46875 C 10.253906 -17.113281 10.546875 -16.457031 10.546875 -15.5 Z M 10.546875 -15.5 "/></g></g></g><g fill="#333333" fill-opacity="1"><g transform="translate(88.854756, 28.122834)"><g><path d="M 10.65625 -3.296875 C 10.65625 -3.015625 10.644531 -2.644531 10.625 -2.1875 C 10.601562 -1.738281 10.535156 -1.300781 10.421875 -0.875 C 10.316406 -0.445312 10.144531 -0.078125 9.90625 0.234375 C 9.675781 0.546875 9.347656 0.703125 8.921875 0.703125 C 8.347656 0.703125 7.90625 0.515625 7.59375 0.140625 C 7.28125 -0.234375 7.128906 -0.703125 7.140625 -1.265625 C 6.640625 -0.828125 6.070312 -0.484375 5.4375 -0.234375 C 4.8125 0.015625 4.171875 0.140625 3.515625 0.140625 C 3.054688 0.140625 2.625 0.03125 2.21875 -0.1875 C 1.8125 -0.40625 1.453125 -0.6875 1.140625 -1.03125 C 0.828125 -1.375 0.578125 -1.757812 0.390625 -2.1875 C 0.203125 -2.613281 0.109375 -3.039062 0.109375 -3.46875 C 0.109375 -4.21875 0.335938 -4.875 0.796875 -5.4375 C 1.265625 -6 1.832031 -6.476562 2.5 -6.875 C 3.175781 -7.269531 3.890625 -7.582031 4.640625 -7.8125 C 5.398438 -8.050781 6.078125 -8.210938 6.671875 -8.296875 C 6.671875 -8.367188 6.675781 -8.4375 6.6875 -8.5 C 6.695312 -8.5625 6.703125 -8.632812 6.703125 -8.71875 C 6.703125 -9.195312 6.566406 -9.582031 6.296875 -9.875 C 6.035156 -10.175781 5.660156 -10.328125 5.171875 -10.328125 C 4.785156 -10.328125 4.453125 -10.257812 4.171875 -10.125 C 3.890625 -10 3.625 -9.851562 3.375 -9.6875 C 3.125 -9.519531 2.875 -9.367188 2.625 -9.234375 C 2.375 -9.109375 2.09375 -9.046875 1.78125 -9.046875 C 1.4375 -9.046875 1.140625 -9.15625 0.890625 -9.375 C 0.648438 -9.59375 0.53125 -9.875 0.53125 -10.21875 C 0.53125 -10.726562 0.679688 -11.191406 0.984375 -11.609375 C 1.296875 -12.035156 1.679688 -12.390625 2.140625 -12.671875 C 2.597656 -12.960938 3.097656 -13.191406 3.640625 -13.359375 C 4.179688 -13.523438 4.675781 -13.609375 5.125 -13.609375 C 5.550781 -13.609375 5.972656 -13.554688 6.390625 -13.453125 C 6.816406 -13.347656 7.21875 -13.191406 7.59375 -12.984375 C 7.96875 -12.773438 8.304688 -12.519531 8.609375 -12.21875 C 8.910156 -11.914062 9.15625 -11.5625 9.34375 -11.15625 C 9.625 -10.570312 9.847656 -9.957031 10.015625 -9.3125 C 10.191406 -8.664062 10.328125 -8 10.421875 -7.3125 C 10.515625 -6.632812 10.578125 -5.957031 10.609375 -5.28125 C 10.640625 -4.601562 10.65625 -3.941406 10.65625 -3.296875 Z M 6.90625 -4.046875 L 6.84375 -5.640625 C 6.8125 -5.640625 6.78125 -5.644531 6.75 -5.65625 C 6.71875 -5.664062 6.6875 -5.671875 6.65625 -5.671875 C 6.445312 -5.671875 6.191406 -5.617188 5.890625 -5.515625 C 5.585938 -5.410156 5.296875 -5.269531 5.015625 -5.09375 C 4.734375 -4.914062 4.492188 -4.71875 4.296875 -4.5 C 4.097656 -4.28125 4 -4.050781 4 -3.8125 C 4 -3.59375 4.078125 -3.441406 4.234375 -3.359375 C 4.390625 -3.285156 4.570312 -3.25 4.78125 -3.25 C 5.125 -3.25 5.488281 -3.335938 5.875 -3.515625 C 6.269531 -3.703125 6.613281 -3.878906 6.90625 -4.046875 Z M 6.90625 -4.046875 "/></g></g></g><g fill="#333333" fill-opacity="1"><g transform="translate(100.216876, 28.122834)"><g><path d="M 14.921875 -7.734375 C 14.921875 -7.429688 14.921875 -7.023438 14.921875 -6.515625 C 14.921875 -6.015625 14.90625 -5.46875 14.875 -4.875 C 14.851562 -4.28125 14.800781 -3.679688 14.71875 -3.078125 C 14.644531 -2.472656 14.523438 -1.925781 14.359375 -1.4375 C 14.203125 -0.957031 14 -0.5625 13.75 -0.25 C 13.5 0.0507812 13.175781 0.203125 12.78125 0.203125 C 12.4375 0.203125 12.175781 0.0625 12 -0.21875 C 11.820312 -0.507812 11.691406 -0.847656 11.609375 -1.234375 C 11.535156 -1.628906 11.492188 -2.03125 11.484375 -2.4375 C 11.484375 -2.84375 11.484375 -3.160156 11.484375 -3.390625 C 11.484375 -4.097656 11.503906 -4.785156 11.546875 -5.453125 C 11.597656 -6.128906 11.625 -6.816406 11.625 -7.515625 C 11.625 -7.597656 11.625 -7.738281 11.625 -7.9375 C 11.625 -8.144531 11.609375 -8.347656 11.578125 -8.546875 C 11.546875 -8.753906 11.492188 -8.9375 11.421875 -9.09375 C 11.347656 -9.25 11.242188 -9.328125 11.109375 -9.328125 C 10.828125 -9.328125 10.597656 -9.179688 10.421875 -8.890625 C 10.253906 -8.597656 10.113281 -8.253906 10 -7.859375 C 9.894531 -7.472656 9.816406 -7.085938 9.765625 -6.703125 C 9.722656 -6.328125 9.691406 -6.046875 9.671875 -5.859375 C 9.640625 -5.648438 9.613281 -5.34375 9.59375 -4.9375 C 9.570312 -4.53125 9.539062 -4.082031 9.5 -3.59375 C 9.457031 -3.113281 9.394531 -2.617188 9.3125 -2.109375 C 9.226562 -1.609375 9.117188 -1.148438 8.984375 -0.734375 C 8.847656 -0.316406 8.675781 0.0195312 8.46875 0.28125 C 8.269531 0.539062 8.023438 0.671875 7.734375 0.671875 C 7.359375 0.671875 7.066406 0.507812 6.859375 0.1875 C 6.660156 -0.132812 6.515625 -0.515625 6.421875 -0.953125 C 6.328125 -1.390625 6.265625 -1.832031 6.234375 -2.28125 C 6.210938 -2.738281 6.203125 -3.09375 6.203125 -3.34375 C 6.203125 -3.613281 6.207031 -3.875 6.21875 -4.125 C 6.226562 -4.375 6.234375 -4.628906 6.234375 -4.890625 C 6.234375 -5.003906 6.234375 -5.1875 6.234375 -5.4375 C 6.234375 -5.6875 6.226562 -5.960938 6.21875 -6.265625 C 6.207031 -6.566406 6.191406 -6.878906 6.171875 -7.203125 C 6.148438 -7.535156 6.113281 -7.835938 6.0625 -8.109375 C 6.019531 -8.390625 5.953125 -8.613281 5.859375 -8.78125 C 5.765625 -8.957031 5.65625 -9.046875 5.53125 -9.046875 C 5.320312 -9.046875 5.128906 -8.914062 4.953125 -8.65625 C 4.785156 -8.394531 4.640625 -8.085938 4.515625 -7.734375 C 4.390625 -7.390625 4.289062 -7.046875 4.21875 -6.703125 C 4.15625 -6.359375 4.125 -6.109375 4.125 -5.953125 L 4.125 -5.8125 C 4.125 -5.0625 4.171875 -4.328125 4.265625 -3.609375 C 4.359375 -2.890625 4.40625 -2.15625 4.40625 -1.40625 C 4.40625 -0.96875 4.265625 -0.566406 3.984375 -0.203125 C 3.703125 0.160156 3.3125 0.34375 2.8125 0.34375 C 2.445312 0.34375 2.144531 0.207031 1.90625 -0.0625 C 1.675781 -0.332031 1.484375 -0.6875 1.328125 -1.125 C 1.171875 -1.5625 1.050781 -2.039062 0.96875 -2.5625 C 0.882812 -3.082031 0.828125 -3.597656 0.796875 -4.109375 C 0.765625 -4.617188 0.742188 -5.078125 0.734375 -5.484375 C 0.722656 -5.898438 0.71875 -6.210938 0.71875 -6.421875 C 0.71875 -6.648438 0.710938 -6.988281 0.703125 -7.4375 C 0.703125 -7.894531 0.710938 -8.390625 0.734375 -8.921875 C 0.753906 -9.453125 0.796875 -9.992188 0.859375 -10.546875 C 0.921875 -11.109375 1.019531 -11.613281 1.15625 -12.0625 C 1.300781 -12.507812 1.488281 -12.878906 1.71875 -13.171875 C 1.945312 -13.460938 2.238281 -13.609375 2.59375 -13.609375 C 3 -13.609375 3.332031 -13.5 3.59375 -13.28125 C 3.851562 -13.0625 3.984375 -12.734375 3.984375 -12.296875 C 3.984375 -12.203125 3.976562 -12.109375 3.96875 -12.015625 C 3.957031 -11.921875 3.945312 -11.835938 3.9375 -11.765625 C 4.101562 -12.003906 4.3125 -12.253906 4.5625 -12.515625 C 4.8125 -12.773438 5.082031 -13.007812 5.375 -13.21875 C 5.664062 -13.425781 5.972656 -13.597656 6.296875 -13.734375 C 6.628906 -13.867188 6.957031 -13.9375 7.28125 -13.9375 C 7.59375 -13.9375 7.875 -13.847656 8.125 -13.671875 C 8.375 -13.503906 8.59375 -13.289062 8.78125 -13.03125 C 8.96875 -12.769531 9.125 -12.492188 9.25 -12.203125 C 9.375 -11.910156 9.460938 -11.628906 9.515625 -11.359375 C 9.671875 -11.640625 9.859375 -11.921875 10.078125 -12.203125 C 10.304688 -12.492188 10.550781 -12.75 10.8125 -12.96875 C 11.082031 -13.1875 11.375 -13.363281 11.6875 -13.5 C 12.007812 -13.644531 12.34375 -13.71875 12.6875 -13.71875 C 13.019531 -13.71875 13.300781 -13.597656 13.53125 -13.359375 C 13.769531 -13.128906 13.972656 -12.832031 14.140625 -12.46875 C 14.316406 -12.101562 14.453125 -11.691406 14.546875 -11.234375 C 14.640625 -10.773438 14.71875 -10.320312 14.78125 -9.875 C 14.84375 -9.425781 14.878906 -9.007812 14.890625 -8.625 C 14.910156 -8.25 14.921875 -7.953125 14.921875 -7.734375 Z M 14.921875 -7.734375 "/></g></g></g></svg>